<?xml version="1.0" standalone="no"?>
<!DOCTYPE svg PUBLIC "-//W3C//DTD SVG 20010904//EN"
 "http://www.w3.org/TR/2001/REC-SVG-20010904/DTD/svg10.dtd">
<svg version="1.0" xmlns="http://www.w3.org/2000/svg"
 width="4796.000000pt" height="4800.000000pt" viewBox="0 0 4796.000000 4800.000000"
 preserveAspectRatio="xMidYMid meet">

<g transform="translate(0.000000,4800.000000) scale(0.100000,-0.100000)"
fill="#000000" stroke="none">
<path d="M23729 45808 c-235 -270 27 51 -2814 -3448 -1347 -1658 -2976 -3663
-3620 -4455 -644 -792 -1196 -1474 -1227 -1515 -114 -153 -149 -250 -114 -317
26 -51 94 -101 221 -163 125 -61 208 -97 2260 -970 1827 -778 3433 -1463 4315
-1840 426 -182 811 -342 855 -355 216 -62 457 -54 686 24 46 16 642 268 1324
561 682 292 1884 806 2670 1142 2672 1140 3280 1400 3335 1428 30 15 126 68
212 118 l157 89 -4030 4957 c-2217 2726 -4034 4956 -4037 4956 -4 0 -91 -96
-193 -212z"/>
<path d="M33538 32760 c-122 -22 -69 0 -1988 -829 -3667 -1586 -4765 -2062
-6350 -2754 -410 -179 -795 -341 -857 -360 -173 -55 -288 -71 -467 -64 -256
10 -344 37 -875 269 -1023 448 -2181 950 -4411 1913 -1992 860 -2425 1048
-3305 1430 -401 174 -763 328 -805 342 -109 37 -263 43 -357 15 -81 -25 -185
-94 -259 -173 -27 -30 -232 -281 -454 -559 -792 -991 -1803 -2245 -3720 -4615
-1713 -2119 -1729 -2138 -1789 -2227 -145 -213 -120 -303 120 -435 104 -58
3008 -1411 10719 -4998 5205 -2421 4664 -2173 4950 -2270 l251 -84 247 98
c377 151 334 132 2439 1112 7060 3288 13027 6070 13138 6125 208 103 265 155
265 240 0 51 -20 100 -73 178 -50 75 73 -79 -1119 1396 -1317 1631 -3827 4738
-4413 5465 -253 314 -496 606 -540 651 -119 120 -217 158 -347 134z"/>
<path d="M5918 21457 c-86 -25 -160 -87 -299 -252 -77 -92 -728 -901 -3300
-4100 -1778 -2212 -1669 -2074 -1720 -2164 -94 -162 -56 -253 155 -378 78 -46
437 -237 3181 -1698 5987 -3187 11661 -6223 17745 -9493 1837 -987 1892 -1017
1965 -1046 160 -64 339 -72 490 -21 87 28 127 49 880 462 2293 1258 3283 1787
14420 7718 4425 2357 6038 3216 6245 3328 451 243 1676 911 1684 918 5 4 -26
67 -70 141 -86 144 -27 70 -1439 1823 -1627 2020 -2630 3270 -3433 4277 -161
202 -312 383 -335 402 -135 109 -278 123 -471 46 -39 -15 -429 -195 -866 -400
-437 -205 -2080 -972 -3650 -1705 -6216 -2901 -6968 -3253 -8155 -3808 -1429
-668 -2481 -1160 -3740 -1752 -495 -232 -934 -434 -975 -448 -114 -39 -219
-57 -328 -57 -190 0 -317 37 -567 167 -537 279 -1267 627 -3435 1636 -14728
6854 -13659 6358 -13768 6391 -78 23 -160 28 -214 13z"/>
</g>
</svg>
